<?xml version="1.0" encoding="UTF-8"?>
<svg width="24px" height="15px" viewBox="0 0 24 15" version="1.1" xmlns="http://www.w3.org/2000/svg" xmlns:xlink="http://www.w3.org/1999/xlink">
    <!-- Generator: Sketch 48.2 (47327) - http://www.bohemiancoding.com/sketch -->
    <title>2. Icons/POLY</title>
    <desc>Created with Sketch.</desc>
    <defs>
        <polygon id="path-1" points="24 6.44723674 23.9514607 5.6311258 23.7141573 6.31121825 22.3766292 7.49185875 20.8449438 7.73125129 20.3865169 7.28511064 21.7240449 5.41349621 23.1047191 5 21.6161798 5.03264444 19.4534831 6.61589967 17.425618 6.4689997 19.4588764 7.87271052 20.4620225 8.58544741 17.4094382 6.42003304 14.5725843 5 14.5725843 5 12.8898876 5.33732586 7.64224719 9.74432495 5.11820225 10.5658766 4.07730337 11.6377023 2.21123596 11.6594653 1.29438202 13.3896205 0 13.7650315 1.22426966 13.9391352 2.36224719 12.3885244 4.11505618 12.7584947 4.08808989 14.4124795 3.20898876 16.8009642 2.70741573 19.0099045 2.16808989 19.8913043 3.53797753 19.5866229 3.38157303 18.6834602 4.5411236 16.2568903 6.79011236 15.3482868 7.65842697 13.8956093 9.12539326 12.8129021 12.0323596 13.2481613 14.9716854 11.9478245 14.4701124 13.9989833 13.1649438 14.1186796 12.792809 15.8107496 13.9146067 15.0544868 15.7591011 14.2438166 17.2098876 11.958706 17.2961798 10.8705581 18.0782022 11.686669 20.3379775 13.1121428 21.6161798 12.5027799 21.5406742 9.47228797 21.1739326 8.30252895 22.851236 7.87815126"></polygon>
    </defs>
    <g id="top-bar-menu" stroke="none" stroke-width="1" fill="none" fill-rule="evenodd" transform="translate(-1239.000000, -25.000000)">
        <g id="2.-Icons/POLY">
            <g transform="translate(1239.000000, 20.000000)">
                <mask id="mask-2" fill="white">
                    <use xlink:href="#path-1"></use>
                </mask>
                <use id="Shape" fill="#313A62" fill-rule="nonzero" xlink:href="#path-1"></use>
                <g id="1.-Colors/Light-blue" mask="url(#mask-2)" fill="#81D4FA" fill-rule="evenodd">
                    <rect id="Gray-85" x="0" y="0" width="24" height="24"></rect>
                </g>
            </g>
        </g>
    </g>
</svg>