<?xml version="1.0" encoding="UTF-8"?>
<svg width="18px" height="18px" viewBox="0 0 18 18" version="1.1" xmlns="http://www.w3.org/2000/svg" xmlns:xlink="http://www.w3.org/1999/xlink">
    <!-- Generator: Sketch 48.2 (47327) - http://www.bohemiancoding.com/sketch -->
    <title>2. Icons/net</title>
    <desc>Created with Sketch.</desc>
    <defs>
        <path d="M11.5467324,10.5467324 C12.0990172,10.5467324 12.5467324,10.9944477 12.5467324,11.5467324 C12.5467324,12.0990172 12.0990172,12.5467324 11.5467324,12.5467324 C10.9944477,12.5467324 10.5467324,12.0990172 10.5467324,11.5467324 C10.5467324,10.9944477 10.9944477,10.5467324 11.5467324,10.5467324 Z M3.7667324,3.7667324 C5.1967324,2.3367324 8.2967324,2.9767324 11.5467324,5.1067324 C14.7967324,2.9767324 17.8967324,2.3367324 19.3267324,3.7667324 C20.7567324,5.1967324 20.1167324,8.2967324 17.9867324,11.5467324 C20.1167324,14.7967324 20.7567324,17.8967324 19.3267324,19.3267324 C17.8967324,20.7567324 14.7967324,20.1167324 11.5467324,17.9867324 C8.2967324,20.1167324 5.1967324,20.7567324 3.7667324,19.3267324 C2.3367324,17.8967324 2.9767324,14.7967324 5.1067324,11.5467324 C2.9767324,8.2967324 2.3367324,5.1967324 3.7667324,3.7667324 Z M15.0867324,8.0067324 C15.6967324,8.6267324 16.2567324,9.2567324 16.7767324,9.8867324 C18.1567324,7.7567324 18.6567324,5.9267324 17.9067324,5.1867324 C17.1667324,4.4367324 15.3367324,4.9367324 13.2067324,6.3167324 C13.8367324,6.8367324 14.4667324,7.3967324 15.0867324,8.0067324 Z M8.0067324,15.0867324 C7.3967324,14.4667324 6.8367324,13.8367324 6.3167324,13.2067324 C4.9367324,15.3367324 4.4367324,17.1667324 5.1867324,17.9067324 C5.9267324,18.6567324 7.7567324,18.1567324 9.8867324,16.7767324 C9.2567324,16.2567324 8.6267324,15.6967324 8.0067324,15.0867324 Z M5.1867324,5.1867324 C4.4367324,5.9267324 4.9367324,7.7567324 6.3167324,9.8867324 C6.8367324,9.2567324 7.3967324,8.6267324 8.0067324,8.0067324 C8.6267324,7.3967324 9.2567324,6.8367324 9.8867324,6.3167324 C7.7567324,4.9367324 5.9267324,4.4367324 5.1867324,5.1867324 Z M9.4267324,13.6667324 C10.1267324,14.3667324 10.8467324,15.0067324 11.5467324,15.5767324 C12.2467324,15.0067324 12.9667324,14.3667324 13.6667324,13.6667324 C14.3667324,12.9667324 15.0067324,12.2467324 15.5767324,11.5467324 C15.0067324,10.8467324 14.3667324,10.1267324 13.6667324,9.4267324 C12.9667324,8.7267324 12.2467324,8.0867324 11.5467324,7.5167324 C10.8467324,8.0867324 10.1267324,8.7267324 9.4267324,9.4267324 C8.7267324,10.1267324 8.0867324,10.8467324 7.5167324,11.5467324 C8.0867324,12.2467324 8.7267324,12.9667324 9.4267324,13.6667324 Z M17.9067324,17.9067324 C18.6567324,17.1667324 18.1567324,15.3367324 16.7767324,13.2067324 C16.2567324,13.8367324 15.6967324,14.4667324 15.0867324,15.0867324 C14.4667324,15.6967324 13.8367324,16.2567324 13.2067324,16.7767324 C15.3367324,18.1567324 17.1667324,18.6567324 17.9067324,17.9067324 Z" id="path-1"></path>
    </defs>
    <g id="top-bar-menu" stroke="none" stroke-width="1" fill="none" fill-rule="evenodd" transform="translate(-914.000000, -23.000000)">
        <g id="net">
            <g transform="translate(911.000000, 20.000000)">
                <g id="2.-Icons/net">
                    <mask id="mask-2" fill="white">
                        <use xlink:href="#path-1"></use>
                    </mask>
                    <use id="Shape" fill="#000000" fill-rule="nonzero" xlink:href="#path-1"></use>
                    <g id="1.-Colors/Light-blue" mask="url(#mask-2)" fill="#81D4FA" fill-rule="evenodd">
                        <rect id="Gray-85" x="0" y="0" width="24" height="24"></rect>
                    </g>
                </g>
            </g>
        </g>
    </g>
</svg>